<svg id="Layer_1" data-name="Layer 1" xmlns="http://www.w3.org/2000/svg" viewBox="0 0 512 512"><defs><style>.cls-1{fill:#f4607f;}.cls-2{fill:#79d3d3;}.cls-3{fill:#d9e4e8;}.cls-4{opacity:0.14;}.cls-5{fill:#17292d;}.cls-6{fill:#141f38;}</style></defs><title>martini-filled</title><path class="cls-1" d="M409.6,12.8a76.91,76.91,0,0,0-75.71,64h48.18a27.09,27.09,0,0,1,25.36,16.49,25.6,25.6,0,0,1-5.29,28.48l-30.93,34.3A76.78,76.78,0,1,0,409.6,12.8Z"/><polygon class="cls-2" points="84.84 179.2 350.36 179.2 217.6 326.48 84.84 179.2"/><path class="cls-3" d="M84.84,179.2,33.33,122.06c-7.82-8.18-9.8-18.82-5.55-28.77A27.09,27.09,0,0,1,53.13,76.8H382.06a27.09,27.09,0,0,1,25.36,16.49,25.6,25.6,0,0,1-5.29,28.48L350.36,179.2Z"/><g class="cls-4"><path class="cls-5" d="M393.75,65.67a61,61,0,0,1-8,10.43L180.2,304.1l13.64,15.13a32,32,0,0,0,47.54,0l170-188.61C432.71,108.36,421,73.56,393.75,65.67Z"/></g><path class="cls-6" d="M409.6,0a89.62,89.62,0,0,0-85.87,64H53.13C17.86,64-.36,105.39,23.82,130.62L60,170.71,204.8,331.4v155h-64a12.8,12.8,0,0,0,0,25.6H294.4a12.8,12.8,0,1,0,0-25.6h-64v-155L374.17,171.9A89.6,89.6,0,1,0,409.6,0Zm-367,113.19-.27-.28a12.83,12.83,0,0,1-2.76-14.6A14.11,14.11,0,0,1,53.13,89.6H382.07a14.11,14.11,0,0,1,13.59,8.71,12.83,12.83,0,0,1-2.76,14.6l-.27.28-.26.29-47.7,52.92H90.54l-47.7-52.92Zm175,194.17L113.61,192h208Zm192-153.76a63.64,63.64,0,0,1-16.88-2.27l18.66-20.7c24.18-25.23,6-66.62-29.31-66.62H351a64,64,0,1,1,58.65,89.6Z"/></svg>